<svg width="490" height="610" viewBox="0 0 490 610" xmlns="http://www.w3.org/2000/svg">
  <rect width="490" height="610" fill="#f5f4f2" rx="4"/>
  <defs>
    <pattern id="hatch" x="0" y="0" width="10" height="10"
             patternUnits="userSpaceOnUse" patternTransform="rotate(45)">
      <line x1="0" y1="0" x2="0" y2="10" stroke="#c0bdb8" stroke-width="1.4"/>
    </pattern>
    <pattern id="fiber_pat" x="0" y="0" width="14" height="5"
             patternUnits="userSpaceOnUse">
      <line x1="0" y1="2.5" x2="14" y2="2.5" stroke="#a08060" stroke-width="0.7"
            stroke-dasharray="5,3"/>
    </pattern>
    <marker id="arr_dn" markerWidth="8" markerHeight="8" refX="4" refY="7" orient="auto">
      <polygon points="0,0 8,0 4,8" fill="#b8860b"/>
    </marker>
    <marker id="arr_rt" markerWidth="8" markerHeight="8" refX="7" refY="4" orient="auto">
      <polygon points="0,0 0,8 8,4" fill="#3d8f68"/>
    </marker>
    <marker id="arr_lt" markerWidth="8" markerHeight="8" refX="1" refY="4" orient="auto">
      <polygon points="8,0 8,8 0,4" fill="#b8860b"/>
    </marker>
    <marker id="arr_up" markerWidth="8" markerHeight="8" refX="4" refY="1" orient="auto">
      <polygon points="0,8 8,8 4,0" fill="#b8860b"/>
    </marker>
  </defs>

  <text x="245" y="42" font-family="Montserrat,Arial,sans-serif" font-size="16" font-weight="700" fill="#1a1714" text-anchor="middle" letter-spacing="2">FLEX MOULDING</text>
  <line x1="40" y1="52" x2="450" y2="52" stroke="#c8c4be" stroke-width="0.8"/>
  <text x="245" y="69" font-family="'Courier New',monospace" font-size="9.5" fill="#706a62" text-anchor="middle" letter-spacing="0.5">жёсткая форма · гибкая мембрана · вакуум / давление</text>
  <line x1="155" y1="90" x2="155" y2="281" stroke="#b8860b" stroke-width="1.5" marker-end="url(#arr_dn)"/>
  <line x1="245" y1="90" x2="245" y2="281" stroke="#b8860b" stroke-width="1.5" marker-end="url(#arr_dn)"/>
  <line x1="295" y1="90" x2="295" y2="281" stroke="#b8860b" stroke-width="1.5" marker-end="url(#arr_dn)"/>
  <text x="245" y="86" font-family="Montserrat,Arial,sans-serif" font-size="9.5" fill="#b8860b" text-anchor="middle" letter-spacing="1.2">ДАВЛЕНИЕ / ВАКУУМ</text>
  <path d="M 77 291 Q 245 317 353 291" stroke="#3a7fc1" stroke-width="3" fill="none" stroke-linecap="round"/>
  <rect x="65" y="279" width="18" height="28" rx="3" fill="#3a7fc1" opacity="0.2" stroke="#3a7fc1" stroke-width="1.2"/>
  <rect x="349" y="279" width="18" height="28" rx="3" fill="#3a7fc1" opacity="0.2" stroke="#3a7fc1" stroke-width="1.2"/>
  <rect x="85" y="331" width="32" height="84" rx="0" fill="#d8d6d2" stroke="#9a9590" stroke-width="1.2"/>
  <rect x="85" y="331" width="32" height="84" rx="0" fill="url(#hatch)" opacity="0.5"/>
  <rect x="313" y="331" width="32" height="84" rx="0" fill="#d8d6d2" stroke="#9a9590" stroke-width="1.2"/>
  <rect x="313" y="331" width="32" height="84" rx="0" fill="url(#hatch)" opacity="0.5"/>
  <rect x="85" y="415" width="260" height="40" rx="0" fill="#d8d6d2" stroke="#9a9590" stroke-width="1.2"/>
  <rect x="85" y="415" width="260" height="40" rx="0" fill="url(#hatch)" opacity="0.5"/>
  <rect x="117" y="334" width="196" height="12" fill="#8b7355" stroke="#a08060" stroke-width="0.5" opacity="0.88"/>
  <rect x="117" y="334" width="196" height="12" fill="url(#fiber_pat)" opacity="0.35"/>
  <rect x="117" y="347" width="196" height="12" fill="#a08060" stroke="#a08060" stroke-width="0.5" opacity="0.88"/>
  <rect x="117" y="347" width="196" height="12" fill="url(#fiber_pat)" opacity="0.35"/>
  <rect x="117" y="360" width="196" height="12" fill="#8b7355" stroke="#a08060" stroke-width="0.5" opacity="0.88"/>
  <rect x="117" y="360" width="196" height="12" fill="url(#fiber_pat)" opacity="0.35"/>
  <rect x="117" y="373" width="196" height="12" fill="#a08060" stroke="#a08060" stroke-width="0.5" opacity="0.88"/>
  <rect x="117" y="373" width="196" height="12" fill="url(#fiber_pat)" opacity="0.35"/>
  <rect x="117" y="386" width="196" height="12" fill="#8b7355" stroke="#a08060" stroke-width="0.5" opacity="0.88"/>
  <rect x="117" y="386" width="196" height="12" fill="url(#fiber_pat)" opacity="0.35"/>
  <rect x="117" y="399" width="196" height="12" fill="#a08060" stroke="#a08060" stroke-width="0.5" opacity="0.88"/>
  <rect x="117" y="399" width="196" height="12" fill="url(#fiber_pat)" opacity="0.35"/>
  <line x1="245" y1="305" x2="360" y2="287" stroke="#706a62" stroke-width="0.8" stroke-dasharray="3,3"/>
  <circle cx="245" cy="305" r="2.2" fill="#706a62"/>
  <text x="365" y="291" font-family="'Courier New',monospace" font-size="9" fill="#706a62" text-anchor="start">мембрана</text>
  <line x1="127" y1="373" x2="360" y2="373" stroke="#706a62" stroke-width="0.8" stroke-dasharray="3,3"/>
  <circle cx="127" cy="373" r="2.2" fill="#706a62"/>
  <text x="365" y="377" font-family="'Courier New',monospace" font-size="9" fill="#706a62" text-anchor="start">стеклоткань</text>
  <line x1="101" y1="433" x2="360" y2="435" stroke="#706a62" stroke-width="0.8" stroke-dasharray="3,3"/>
  <circle cx="101" cy="433" r="2.2" fill="#706a62"/>
  <text x="365" y="439" font-family="'Courier New',monospace" font-size="9" fill="#706a62" text-anchor="start">жёсткая форма</text>
  <line x1="40" y1="552" x2="450" y2="552" stroke="#c8c4be" stroke-width="0.6"/>
  <text x="245" y="570" font-family="Montserrat,Arial,sans-serif" font-size="10.5" fill="#706a62" text-anchor="middle">Гибкая верхняя форма точно повторяет геометрию изделия.</text>
  <text x="245" y="587" font-family="Montserrat,Arial,sans-serif" font-size="10.5" fill="#706a62" text-anchor="middle">Идеальная лицевая поверхность без лишних затрат на оснастку.</text>

</svg>