<svg width="490" height="610" viewBox="0 0 490 610" xmlns="http://www.w3.org/2000/svg">
  <rect width="490" height="610" fill="#f5f4f2" rx="4"/>
  <defs>
    <pattern id="hatch" x="0" y="0" width="10" height="10"
             patternUnits="userSpaceOnUse" patternTransform="rotate(45)">
      <line x1="0" y1="0" x2="0" y2="10" stroke="#c0bdb8" stroke-width="1.4"/>
    </pattern>
    <pattern id="fiber_pat" x="0" y="0" width="14" height="5"
             patternUnits="userSpaceOnUse">
      <line x1="0" y1="2.5" x2="14" y2="2.5" stroke="#a08060" stroke-width="0.7"
            stroke-dasharray="5,3"/>
    </pattern>
    <marker id="arr_dn" markerWidth="8" markerHeight="8" refX="4" refY="7" orient="auto">
      <polygon points="0,0 8,0 4,8" fill="#b8860b"/>
    </marker>
    <marker id="arr_rt" markerWidth="8" markerHeight="8" refX="7" refY="4" orient="auto">
      <polygon points="0,0 0,8 8,4" fill="#3d8f68"/>
    </marker>
    <marker id="arr_lt" markerWidth="8" markerHeight="8" refX="1" refY="4" orient="auto">
      <polygon points="8,0 8,8 0,4" fill="#b8860b"/>
    </marker>
    <marker id="arr_up" markerWidth="8" markerHeight="8" refX="4" refY="1" orient="auto">
      <polygon points="0,8 8,8 4,0" fill="#b8860b"/>
    </marker>
  </defs>

  <text x="245" y="42" font-family="Montserrat,Arial,sans-serif" font-size="16" font-weight="700" fill="#1a1714" text-anchor="middle" letter-spacing="2">VACUUM INFUSION</text>
  <line x1="40" y1="52" x2="450" y2="52" stroke="#c8c4be" stroke-width="0.8"/>
  <text x="245" y="69" font-family="'Courier New',monospace" font-size="9.5" fill="#706a62" text-anchor="middle" letter-spacing="0.5">открытая форма · вакуумный мешок · инфузия смолы</text>
  <rect x="85" y="326" width="30" height="89" rx="0" fill="#d8d6d2" stroke="#9a9590" stroke-width="1.2"/>
  <rect x="85" y="326" width="30" height="89" rx="0" fill="url(#hatch)" opacity="0.5"/>
  <rect x="315" y="326" width="30" height="89" rx="0" fill="#d8d6d2" stroke="#9a9590" stroke-width="1.2"/>
  <rect x="315" y="326" width="30" height="89" rx="0" fill="url(#hatch)" opacity="0.5"/>
  <rect x="85" y="415" width="260" height="40" rx="0" fill="#d8d6d2" stroke="#9a9590" stroke-width="1.2"/>
  <rect x="85" y="415" width="260" height="40" rx="0" fill="url(#hatch)" opacity="0.5"/>
  <rect x="115" y="328" width="200" height="13" fill="#8b7355" stroke="#a08060" stroke-width="0.4" opacity="0.88"/>
  <rect x="115" y="328" width="200" height="13" fill="url(#fiber_pat)" opacity="0.38"/>
  <rect x="115" y="342" width="200" height="13" fill="#a08060" stroke="#a08060" stroke-width="0.4" opacity="0.88"/>
  <rect x="115" y="342" width="200" height="13" fill="url(#fiber_pat)" opacity="0.38"/>
  <rect x="115" y="356" width="200" height="13" fill="#8b7355" stroke="#a08060" stroke-width="0.4" opacity="0.88"/>
  <rect x="115" y="356" width="200" height="13" fill="url(#fiber_pat)" opacity="0.38"/>
  <rect x="115" y="370" width="200" height="13" fill="#a08060" stroke="#a08060" stroke-width="0.4" opacity="0.88"/>
  <rect x="115" y="370" width="200" height="13" fill="url(#fiber_pat)" opacity="0.38"/>
  <rect x="115" y="384" width="200" height="13" fill="#8b7355" stroke="#a08060" stroke-width="0.4" opacity="0.88"/>
  <rect x="115" y="384" width="200" height="13" fill="url(#fiber_pat)" opacity="0.38"/>
  <rect x="115" y="398" width="200" height="11" fill="#6aaa88" stroke="#3d8f68" stroke-width="0.6" opacity="0.65"/>
  <circle cx="123" cy="404" r="1.4" fill="#3d8f68" opacity="0.5"/>
  <circle cx="133" cy="404" r="1.4" fill="#3d8f68" opacity="0.5"/>
  <circle cx="143" cy="404" r="1.4" fill="#3d8f68" opacity="0.5"/>
  <circle cx="153" cy="404" r="1.4" fill="#3d8f68" opacity="0.5"/>
  <circle cx="163" cy="404" r="1.4" fill="#3d8f68" opacity="0.5"/>
  <circle cx="173" cy="404" r="1.4" fill="#3d8f68" opacity="0.5"/>
  <circle cx="183" cy="404" r="1.4" fill="#3d8f68" opacity="0.5"/>
  <circle cx="193" cy="404" r="1.4" fill="#3d8f68" opacity="0.5"/>
  <circle cx="203" cy="404" r="1.4" fill="#3d8f68" opacity="0.5"/>
  <circle cx="213" cy="404" r="1.4" fill="#3d8f68" opacity="0.5"/>
  <circle cx="223" cy="404" r="1.4" fill="#3d8f68" opacity="0.5"/>
  <circle cx="233" cy="404" r="1.4" fill="#3d8f68" opacity="0.5"/>
  <circle cx="243" cy="404" r="1.4" fill="#3d8f68" opacity="0.5"/>
  <circle cx="253" cy="404" r="1.4" fill="#3d8f68" opacity="0.5"/>
  <circle cx="263" cy="404" r="1.4" fill="#3d8f68" opacity="0.5"/>
  <circle cx="273" cy="404" r="1.4" fill="#3d8f68" opacity="0.5"/>
  <circle cx="283" cy="404" r="1.4" fill="#3d8f68" opacity="0.5"/>
  <circle cx="293" cy="404" r="1.4" fill="#3d8f68" opacity="0.5"/>
  <circle cx="303" cy="404" r="1.4" fill="#3d8f68" opacity="0.5"/>
  <line x1="127" y1="363" x2="155" y2="363" stroke="#3d8f68" stroke-width="1.1" marker-end="url(#arr_rt)" opacity="0.5"/>
  <line x1="173" y1="363" x2="201" y2="363" stroke="#3d8f68" stroke-width="1.1" marker-end="url(#arr_rt)" opacity="0.5"/>
  <line x1="223" y1="363" x2="251" y2="363" stroke="#3d8f68" stroke-width="1.1" marker-end="url(#arr_rt)" opacity="0.5"/>
  <line x1="273" y1="363" x2="301" y2="363" stroke="#3d8f68" stroke-width="1.1" marker-end="url(#arr_rt)" opacity="0.5"/>
  <path d="M 87 286 L 115 298 Q 215 318 315 298 L 343 286" stroke="#3a7fc1" stroke-width="2.8" fill="none" stroke-linecap="round"/>
  <rect x="83" y="274" width="30" height="16" rx="3" fill="#3a7fc1" opacity="0.22" stroke="#3a7fc1" stroke-width="1"/>
  <rect x="317" y="274" width="30" height="16" rx="3" fill="#3a7fc1" opacity="0.22" stroke="#3a7fc1" stroke-width="1"/>
  <circle cx="42" cy="327" r="20" fill="#3d8f68" opacity="0.12" stroke="#3d8f68" stroke-width="1.3"/>
  <text x="42" y="325" font-family="Montserrat,Arial,sans-serif" font-size="8" fill="#3d8f68" text-anchor="middle">смола</text>
  <line x1="42" y1="347" x2="42" y2="365" stroke="#3d8f68" stroke-width="1.4"/>
  <line x1="42" y1="365" x2="112" y2="365" stroke="#3d8f68" stroke-width="1.4" marker-end="url(#arr_rt)"/>
  <line x1="347" y1="282" x2="446" y2="282" stroke="#b8860b" stroke-width="1.5"/>
  <line x1="446" y1="282" x2="446" y2="250" stroke="#b8860b" stroke-width="1.5" marker-end="url(#arr_up)"/>
  <rect x="426" y="216" width="40" height="28" rx="3" fill="#b8860b" opacity="0.12" stroke="#b8860b" stroke-width="1.2"/>
  <text x="446" y="234" font-family="Montserrat,Arial,sans-serif" font-size="8" fill="#b8860b" text-anchor="middle">вакуум-</text>
  <text x="446" y="244" font-family="Montserrat,Arial,sans-serif" font-size="8" fill="#b8860b" text-anchor="middle">насос</text>
  <line x1="215" y1="306" x2="360" y2="288" stroke="#706a62" stroke-width="0.8" stroke-dasharray="3,3"/>
  <circle cx="215" cy="306" r="2.2" fill="#706a62"/>
  <text x="365" y="292" font-family="'Courier New',monospace" font-size="9" fill="#706a62" text-anchor="start">вакуумный мешок</text>
  <line x1="125" y1="404" x2="360" y2="404" stroke="#706a62" stroke-width="0.8" stroke-dasharray="3,3"/>
  <circle cx="125" cy="404" r="2.2" fill="#706a62"/>
  <text x="365" y="408" font-family="'Courier New',monospace" font-size="9" fill="#706a62" text-anchor="start">инфузионная сетка</text>
  <line x1="215" y1="346" x2="360" y2="346" stroke="#706a62" stroke-width="0.8" stroke-dasharray="3,3"/>
  <circle cx="215" cy="346" r="2.2" fill="#706a62"/>
  <text x="365" y="350" font-family="'Courier New',monospace" font-size="9" fill="#706a62" text-anchor="start">армирование</text>
  <line x1="100" y1="433" x2="360" y2="435" stroke="#706a62" stroke-width="0.8" stroke-dasharray="3,3"/>
  <circle cx="100" cy="433" r="2.2" fill="#706a62"/>
  <text x="365" y="439" font-family="'Courier New',monospace" font-size="9" fill="#706a62" text-anchor="start">жёсткая форма</text>
  <line x1="40" y1="552" x2="450" y2="552" stroke="#c8c4be" stroke-width="0.6"/>
  <text x="245" y="570" font-family="Montserrat,Arial,sans-serif" font-size="10.5" fill="#706a62" text-anchor="middle">Смола втягивается вакуумом сквозь сухой ламинат —</text>
  <text x="245" y="587" font-family="Montserrat,Arial,sans-serif" font-size="10.5" fill="#706a62" text-anchor="middle">минимальный брак, оптимальный расход материала.</text>

</svg>